<svg width="1440" height="400" viewBox="0 0 1440 400" fill="none" xmlns="http://www.w3.org/2000/svg">
<g clip-path="url(#clip0)">
<path opacity="0.08" d="M-63 147L224 378M224 378L695 -17L1439 285M224 378L398 502M224 378L106 509M224 378L673 357M224 378L777 507M224 378L-24.5 349.5L475 -17M398 502L475 -17M398 502V663M106 509L398 663M106 509L-24.5 703L960.5 429.5M673 357L143 -17M673 357L777 507M673 357L1167 -17L1439 285M673 357L960.5 429.5M777 507L960.5 429.5M777 507L398 663M1467 619L960.5 429.5M960.5 429.5L1149 -49M960.5 429.5L1439 285M960.5 429.5L475 -17M960.5 429.5L829 685L1439 285" stroke="#173D5A" stroke-width="3"/>
<g opacity="0.24">
<path fill-rule="evenodd" clip-rule="evenodd" d="M1432.43 272.373L1432.93 272.259L1438.02 270.396C1438.41 270.254 1438.84 270.277 1439.21 270.459L1449.39 275.45C1449.53 275.518 1449.65 275.604 1449.76 275.706L1450.24 275.914V311.162L1432.43 311.162H1407.74H1389.52V274.154C1389.52 273.556 1389.87 273.014 1390.41 272.769L1399.23 268.816C1399.58 268.658 1399.98 268.64 1400.34 268.765L1407.52 271.237L1407.74 270.756V259.612C1407.74 259.068 1408.03 258.565 1408.5 258.295L1414.97 254.585L1421.71 250.719C1422.03 250.538 1422.4 250.477 1422.75 250.546L1431.2 252.174C1431.91 252.311 1432.43 252.937 1432.43 253.664V272.373Z" fill="#ECEFF2"/>
<path fill-rule="evenodd" clip-rule="evenodd" d="M1414.4 257.944C1414.93 257.619 1415.11 256.919 1414.78 256.381C1414.46 255.843 1413.76 255.67 1413.22 255.995L1408.29 258.976C1407.94 259.182 1407.74 259.551 1407.74 259.95V270.074C1407.74 270.324 1407.5 270.506 1407.26 270.44L1401.21 268.776C1400.96 268.706 1400.69 268.727 1400.45 268.835L1390.19 273.437C1389.78 273.62 1389.52 274.027 1389.52 274.476V310.482C1389.52 311.11 1390.03 311.62 1390.66 311.62C1391.29 311.62 1391.8 311.11 1391.8 310.482V275.458C1391.8 275.309 1391.88 275.173 1392.02 275.112L1399.24 271.873C1399.49 271.76 1399.77 271.944 1399.77 272.219V310.482C1399.77 311.11 1400.28 311.62 1400.91 311.62C1401.54 311.62 1402.05 311.11 1402.05 310.482V271.866C1402.05 271.616 1402.29 271.434 1402.53 271.501L1407.46 272.857C1407.62 272.902 1407.74 273.052 1407.74 273.223V310.482C1407.74 311.11 1408.25 311.62 1408.87 311.62C1409.5 311.62 1410.01 311.11 1410.01 310.482V260.807C1410.01 260.674 1410.08 260.551 1410.2 260.482L1414.4 257.944ZM1440.84 271.49V271.49C1440.76 271.454 1440.69 271.389 1440.66 271.308C1440.48 270.91 1440.08 270.632 1439.61 270.632C1438.99 270.632 1438.48 271.142 1438.48 271.771V310.482C1438.48 311.11 1438.99 311.62 1439.61 311.62C1440.24 311.62 1440.75 311.111 1440.75 310.482V274.528C1440.75 274.254 1441.04 274.07 1441.29 274.182L1443.33 275.088C1443.9 275.344 1444.57 275.085 1444.83 274.51C1445.09 273.936 1444.83 273.263 1444.25 273.008L1440.84 271.49Z" fill="#9DC0AE"/>
<path d="M1416.08 263.642C1416.08 263.506 1416.16 263.38 1416.28 263.312L1418.17 262.228C1418.43 262.083 1418.74 262.266 1418.74 262.558V264.719C1418.74 264.856 1418.67 264.981 1418.55 265.049L1416.65 266.133C1416.4 266.278 1416.08 266.095 1416.08 265.804V263.642Z" fill="#479D80"/>
<path d="M1416.08 267.437C1416.08 267.301 1416.16 267.175 1416.28 267.108L1418.17 266.023C1418.43 265.879 1418.74 266.061 1418.74 266.353V268.515C1418.74 268.651 1418.67 268.777 1418.55 268.844L1416.65 269.928C1416.4 270.073 1416.08 269.89 1416.08 269.599V267.437Z" fill="#479D80"/>
<path d="M1416.08 271.232C1416.08 271.096 1416.16 270.97 1416.28 270.903L1418.17 269.818C1418.43 269.674 1418.74 269.856 1418.74 270.148V272.31C1418.74 272.446 1418.67 272.572 1418.55 272.639L1416.65 273.724C1416.4 273.868 1416.08 273.686 1416.08 273.394V271.232Z" fill="#479D80"/>
<path d="M1416.08 259.847C1416.08 259.711 1416.16 259.585 1416.28 259.517L1418.17 258.433C1418.43 258.288 1418.74 258.471 1418.74 258.762V260.924C1418.74 261.06 1418.67 261.186 1418.55 261.254L1416.65 262.338C1416.4 262.483 1416.08 262.3 1416.08 262.009V259.847Z" fill="#479D80"/>
<path d="M1416.08 256.052C1416.08 255.915 1416.16 255.79 1416.28 255.722L1418.17 254.638C1418.43 254.493 1418.74 254.676 1418.74 254.967V257.129C1418.74 257.265 1418.67 257.391 1418.55 257.459L1416.65 258.543C1416.4 258.688 1416.08 258.505 1416.08 258.213V256.052Z" fill="#479D80"/>
<path d="M1436.11 272.648L1433.83 273.217C1433.66 273.259 1433.54 273.411 1433.54 273.585V275.08C1433.54 275.327 1433.77 275.508 1434.01 275.448L1436.29 274.879C1436.46 274.837 1436.58 274.685 1436.58 274.511V273.016C1436.58 272.769 1436.35 272.588 1436.11 272.648Z" fill="#173D5A"/>
<path d="M1436.11 275.684L1433.83 276.253C1433.66 276.296 1433.54 276.447 1433.54 276.622V278.116C1433.54 278.363 1433.77 278.544 1434.01 278.484L1436.29 277.915C1436.46 277.873 1436.58 277.721 1436.58 277.547V276.052C1436.58 275.805 1436.35 275.624 1436.11 275.684Z" fill="#173D5A"/>
<path d="M1405.17 273.217L1402.89 272.648C1402.65 272.588 1402.42 272.769 1402.42 273.016V274.852C1402.42 275.043 1402.56 275.204 1402.75 275.228L1405.03 275.513C1405.26 275.541 1405.46 275.365 1405.46 275.136V273.585C1405.46 273.411 1405.34 273.259 1405.17 273.217Z" fill="#173D5A"/>
<path d="M1405.13 275.904L1402.85 275.619C1402.62 275.591 1402.42 275.768 1402.42 275.996V277.843C1402.42 278.053 1402.59 278.223 1402.8 278.223H1405.08C1405.29 278.223 1405.46 278.053 1405.46 277.843V276.281C1405.46 276.089 1405.32 275.928 1405.13 275.904Z" fill="#173D5A"/>
<path d="M1388 310.482H1451L1450.23 312H1389.23C1388.95 312 1388.69 311.839 1388.56 311.584L1388 310.482Z" fill="#9DC0AE"/>
<path fill-rule="evenodd" clip-rule="evenodd" d="M1422.04 249.021C1421.77 248.969 1421.49 249.015 1421.26 249.151L1414.02 253.297L1406.79 257.444C1406.44 257.647 1406.22 258.024 1406.22 258.432V268.555C1406.22 268.806 1405.98 268.988 1405.74 268.921L1399.7 267.258C1399.44 267.187 1399.17 267.208 1398.93 267.317L1388.67 271.918C1388.26 272.102 1388 272.509 1388 272.957V310.947C1388 311.576 1388.51 312.086 1389.14 312.086C1389.77 312.086 1390.28 311.576 1390.28 310.947V273.94C1390.28 273.79 1390.36 273.655 1390.5 273.594L1392.64 272.635C1392.89 272.522 1393.17 272.706 1393.17 272.981V293.023C1393.17 293.652 1393.68 294.161 1394.31 294.161C1394.94 294.161 1395.45 293.652 1395.45 293.023V271.392V271.392C1395.45 271.38 1395.46 271.37 1395.47 271.366L1397.72 270.354C1397.97 270.241 1398.26 270.425 1398.26 270.7V310.947C1398.26 311.576 1398.77 312.086 1399.39 312.086C1400.02 312.086 1400.53 311.576 1400.53 310.947V270.348C1400.53 270.097 1400.77 269.916 1401.01 269.982L1405.94 271.338C1406.1 271.384 1406.22 271.534 1406.22 271.704V310.861C1406.22 311.49 1406.73 312 1407.36 312C1407.98 312 1408.49 311.49 1408.49 310.861V259.311C1408.49 259.175 1408.57 259.05 1408.68 258.982L1412.85 256.596C1413.1 256.451 1413.41 256.634 1413.41 256.926V277.347C1413.41 277.975 1413.92 278.485 1414.55 278.485C1415.18 278.485 1415.69 277.975 1415.69 277.347V255.185C1415.69 255.049 1415.76 254.924 1415.88 254.856L1420.83 252.02C1421.08 251.875 1421.4 252.058 1421.4 252.349L1421.4 310.861C1421.4 311.49 1421.91 312 1422.54 312C1423.16 312 1423.67 311.49 1423.67 310.861V252.115C1423.67 251.877 1423.89 251.697 1424.13 251.743L1425.68 252.042C1425.86 252.076 1425.98 252.232 1425.98 252.414V281.821C1425.98 282.45 1426.49 282.959 1427.12 282.959C1427.75 282.959 1428.26 282.45 1428.26 281.821V253C1428.26 252.761 1428.48 252.582 1428.71 252.627L1430.6 252.991C1430.78 253.026 1430.91 253.182 1430.91 253.364V310.861C1430.91 311.49 1431.42 312 1432.05 312C1432.68 312 1433.19 311.49 1433.19 310.861V272.819C1433.19 272.652 1433.3 272.504 1433.46 272.456L1436.79 271.459C1437.03 271.387 1437.28 271.569 1437.28 271.823L1437.28 310.861C1437.28 311.49 1437.79 312 1438.41 312C1439.04 312 1439.55 311.49 1439.55 310.861V272.39C1439.55 272.114 1439.84 271.931 1440.09 272.044L1442.84 273.284C1442.98 273.345 1443.07 273.481 1443.07 273.63V283.489C1443.07 284.118 1443.58 284.628 1444.2 284.628C1444.83 284.628 1445.34 284.118 1445.34 283.489V274.997C1445.34 274.722 1445.63 274.538 1445.88 274.651L1448.5 275.832C1448.64 275.893 1448.72 276.028 1448.72 276.178V310.861C1448.72 311.49 1449.23 312 1449.86 312C1450.49 312 1451 311.49 1451 310.861V275.197C1451 274.749 1450.74 274.342 1450.33 274.158L1438.54 268.849C1438.29 268.736 1438.01 268.718 1437.75 268.796L1433.67 270.014C1433.43 270.087 1433.19 269.904 1433.19 269.65V252.111C1433.19 251.565 1432.8 251.096 1432.26 250.993L1427.49 250.071C1427.39 250.04 1427.29 250.02 1427.19 250.014L1422.04 249.021Z" fill="#173D5A"/>
</g>
<g opacity="0.24">
<path d="M1035.86 127.761C1036 127.761 1036.13 127.667 1036.23 127.5C1036.33 127.333 1036.38 127.106 1036.38 126.87C1036.38 126.75 1036.37 126.631 1036.35 126.52C1036.32 126.408 1036.28 126.307 1036.23 126.221C1036.19 126.135 1036.13 126.067 1036.06 126.02C1036 125.973 1035.93 125.949 1035.86 125.949L1021.44 125.563C1021.32 125.602 1021.21 125.714 1021.12 125.879C1021.04 126.045 1021 126.253 1021 126.469C1021 126.685 1021.04 126.893 1021.12 127.059C1021.21 127.224 1021.32 127.336 1021.44 127.375L1035.86 127.761Z" fill="#173D5A"/>
<path d="M1035.16 116.653C1035.24 116.682 1035.35 116.621 1035.46 116.484C1035.57 116.347 1035.68 116.145 1035.76 115.923C1035.8 115.811 1035.84 115.697 1035.86 115.587C1035.89 115.477 1035.9 115.373 1035.9 115.283C1035.9 115.192 1035.89 115.116 1035.87 115.059C1035.85 115.002 1035.82 114.965 1035.78 114.951L1027.72 111.616C1027.64 111.627 1027.53 111.709 1027.43 111.848C1027.33 111.987 1027.23 112.174 1027.16 112.377C1027.09 112.579 1027.04 112.785 1027.03 112.957C1027.02 113.129 1027.04 113.257 1027.1 113.319L1035.16 116.653Z" fill="#173D5A"/>
<path d="M1039.6 128.483H1072.58C1072.72 128.504 1072.87 128.492 1073.01 128.447C1073.14 128.402 1073.27 128.326 1073.38 128.223C1073.49 128.12 1073.58 127.992 1073.64 127.849C1073.7 127.706 1073.73 127.551 1073.73 127.394C1073.73 127.237 1073.7 127.082 1073.64 126.939C1073.58 126.796 1073.49 126.669 1073.38 126.566C1073.27 126.463 1073.14 126.386 1073.01 126.342C1072.87 126.297 1072.72 126.285 1072.58 126.306H1039.58C1039.44 126.306 1039.31 126.335 1039.19 126.39C1039.07 126.446 1038.96 126.527 1038.86 126.629C1038.77 126.731 1038.7 126.853 1038.65 126.986C1038.6 127.119 1038.58 127.261 1038.58 127.405C1038.58 127.548 1038.6 127.69 1038.66 127.822C1038.71 127.954 1038.78 128.074 1038.88 128.174C1038.97 128.275 1039.08 128.354 1039.21 128.407C1039.33 128.459 1039.46 128.485 1039.6 128.483V128.483Z" fill="#173D5A"/>
<path d="M1099.81 113.112H1122.36C1122.41 113.117 1122.47 113.093 1122.53 113.04C1122.58 112.988 1122.63 112.91 1122.67 112.809C1122.71 112.708 1122.75 112.587 1122.77 112.454C1122.79 112.32 1122.8 112.177 1122.8 112.032C1122.8 111.736 1122.76 111.452 1122.67 111.243C1122.59 111.033 1122.47 110.916 1122.36 110.916H1099.81C1099.7 110.916 1099.58 111.033 1099.5 111.243C1099.41 111.452 1099.37 111.736 1099.37 112.032C1099.37 112.177 1099.38 112.32 1099.4 112.454C1099.42 112.587 1099.46 112.708 1099.5 112.809C1099.54 112.91 1099.59 112.988 1099.64 113.04C1099.7 113.093 1099.76 113.117 1099.81 113.112V113.112Z" fill="#173D5A"/>
<path d="M1036.03 143.873C1036.18 143.873 1036.32 143.861 1036.45 143.836C1036.59 143.812 1036.71 143.776 1036.81 143.731C1036.91 143.687 1036.99 143.633 1037.04 143.575C1037.09 143.517 1037.12 143.455 1037.11 143.392V103.325C1037.12 103.263 1037.09 103.202 1037.04 103.144C1036.99 103.087 1036.91 103.035 1036.81 102.991C1036.71 102.947 1036.58 102.913 1036.45 102.89C1036.32 102.868 1036.17 102.857 1036.03 102.859C1035.89 102.857 1035.74 102.868 1035.61 102.89C1035.47 102.913 1035.35 102.947 1035.24 102.99C1035.14 103.034 1035.06 103.086 1035 103.143C1034.94 103.201 1034.92 103.262 1034.92 103.325V143.392C1034.92 143.52 1035.03 143.642 1035.24 143.732C1035.45 143.823 1035.74 143.873 1036.03 143.873Z" fill="#173D5A"/>
<path d="M1099 140.211C1099.29 140.211 1099.57 140.158 1099.78 140.064C1099.98 139.969 1100.1 139.841 1100.1 139.708V99.7005C1100.1 99.567 1099.98 99.439 1099.78 99.3446C1099.57 99.2502 1099.29 99.1971 1099 99.1971C1098.71 99.1971 1098.43 99.2502 1098.22 99.3446C1098.02 99.439 1097.9 99.567 1097.9 99.7005V139.708C1097.9 139.841 1098.02 139.969 1098.22 140.064C1098.43 140.158 1098.71 140.211 1099 140.211Z" fill="#173D5A"/>
<path d="M1042.97 127.394H1041.87V128.493V143.141V144.239H1042.97H1069.34H1070.44V143.141V128.493V127.394H1069.34H1042.97Z" fill="#ECEFF2" stroke="#173D5A" stroke-width="2.19718" stroke-miterlimit="10"/>
<path d="M1031.19 162.965L1031.24 162.985L1031.29 163C1032.18 163.282 1032.87 163.282 1033.63 163.282C1033.65 163.282 1033.66 163.282 1033.67 163.282H1100.33C1102.52 163.282 1106.14 162.917 1108.52 161.696C1109.76 161.061 1111.34 159.67 1112.47 158.51C1113.05 157.92 1113.56 157.337 1113.89 156.877C1114.03 156.672 1114.22 156.392 1114.31 156.105C1114.34 155.998 1114.46 155.625 1114.29 155.213C1114.18 154.966 1114 154.76 1113.76 154.632C1113.54 154.515 1113.33 154.493 1113.19 154.493H1113.18H1113.17H1113.17H1113.15H1113.14H1113.13H1113.11H1113.09H1113.07H1113.05H1113.03H1113H1112.97H1112.94H1112.91H1112.88H1112.84H1112.81H1112.77H1112.73H1112.69H1112.64H1112.6H1112.55H1112.5H1112.45H1112.4H1112.35H1112.29H1112.23H1112.17H1112.11H1112.05H1111.99H1111.92H1111.85H1111.78H1111.71H1111.64H1111.57H1111.49H1111.41H1111.34H1111.26H1111.17H1111.09H1111.01H1110.92H1110.83H1110.74H1110.65H1110.56H1110.46H1110.37H1110.27H1110.17H1110.07H1109.97H1109.87H1109.76H1109.66H1109.55H1109.44H1109.33H1109.22H1109.1H1108.99H1108.87H1108.76H1108.64H1108.52H1108.39H1108.27H1108.15H1108.02H1107.89H1107.77H1107.64H1107.51H1107.37H1107.24H1107.1H1106.97H1106.83H1106.69H1106.55H1106.41H1106.27H1106.12H1105.98H1105.83H1105.68H1105.54H1105.39H1105.23H1105.08H1104.93H1104.77H1104.62H1104.46H1104.3H1104.14H1103.98H1103.82H1103.66H1103.49H1103.33H1103.16H1102.99H1102.83H1102.66H1102.49H1102.31H1102.14H1101.97H1101.79H1101.62H1101.44H1101.26H1101.08H1100.9H1100.72H1100.54H1100.36H1100.17H1099.99H1099.8H1099.62H1099.43H1099.24H1099.05H1098.86H1098.67H1098.48H1098.28H1098.09H1097.89H1097.7H1097.5H1097.3H1097.1H1096.9H1096.7H1096.5H1096.3H1096.1H1095.89H1095.69H1095.49H1095.28H1095.07H1094.86H1094.66H1094.45H1094.24H1094.03H1093.82H1093.6H1093.39H1093.18H1092.96H1092.75H1092.53H1092.32H1092.1H1091.88H1091.66H1091.44H1091.22H1091H1090.78H1090.56H1090.34H1090.12H1089.89H1089.67H1089.45H1089.22H1088.99H1088.77H1088.54H1088.31H1088.09H1087.86H1087.63H1087.4H1087.17H1086.94H1086.71H1086.48H1086.24H1086.01H1085.78H1085.55H1085.31H1085.08H1084.84H1084.61H1084.37H1084.14H1083.9H1083.66H1083.42H1083.19H1082.95H1082.71H1082.47H1082.23H1081.99H1081.75H1081.51H1081.27H1081.03H1080.79H1080.55H1080.31H1080.07H1079.82H1079.58H1079.34H1079.09H1078.85H1078.61H1078.36H1078.12H1077.87H1077.63H1077.39H1077.14H1076.9H1076.65H1076.4H1076.16H1075.91H1075.67H1075.42H1075.17H1074.93H1074.68H1074.44H1074.19H1073.94H1073.69H1073.45H1073.2H1072.95H1072.71H1072.46H1072.21H1071.96H1071.72H1071.47H1071.22H1070.97H1070.73H1070.48H1070.23H1069.98H1069.74H1069.49H1069.24H1068.99H1068.75H1068.5H1068.25H1068H1067.76H1067.51H1067.26H1067.02H1066.77H1066.52H1066.28H1066.03H1065.79H1065.54H1065.29H1065.05H1064.8H1064.56H1064.31H1064.07H1063.82H1063.58H1063.33H1063.09H1062.85H1062.6H1062.36H1062.12H1061.87H1061.63H1061.39H1061.15H1060.9H1060.66H1060.42H1060.18H1059.94H1059.7H1059.46H1059.22H1058.98H1058.74H1058.51H1058.27H1058.03H1057.79H1057.56H1057.32H1057.08H1056.85H1056.61H1056.38H1056.14H1055.91H1055.68H1055.44H1055.21H1054.98H1054.75H1054.52H1054.29H1054.06H1053.83H1053.6H1053.37H1053.14H1052.92H1052.69H1052.46H1052.24H1052.01H1051.79H1051.56H1051.34H1051.12H1050.9H1050.68H1050.45H1050.23H1050.02H1049.8H1049.58H1049.36H1049.14H1048.93H1048.71H1048.5H1048.28H1048.07H1047.86H1047.65H1047.43H1047.22H1047.01H1046.81H1046.6H1046.39H1046.18H1045.98H1045.77H1045.57H1045.37H1045.16H1044.96H1044.76H1044.56H1044.36H1044.16H1043.97H1043.77H1043.57H1043.38H1043.18H1042.99H1042.8H1042.61H1042.42H1042.23H1042.04H1041.85H1041.67H1041.48H1041.3H1041.11H1040.93H1040.75H1040.57H1040.39H1040.21H1040.03H1039.85H1039.68H1039.5H1039.33H1039.16H1038.99H1038.82H1038.65H1038.48H1038.31H1038.15H1037.98H1037.82H1037.65H1037.49H1037.33H1037.17H1037.02H1036.86H1036.7H1036.55H1036.4H1036.24H1036.09H1035.94H1035.79H1035.65H1035.5H1035.36H1035.21H1035.07H1034.93H1034.79H1034.65H1034.51H1034.38H1034.24H1034.11H1033.98H1033.85H1033.72H1033.59H1033.46H1033.34H1033.21H1033.09H1032.97H1032.85H1032.73H1032.61H1032.5H1032.38H1032.27H1032.16H1032.05H1031.94H1031.83H1031.73H1031.62H1031.52H1031.42H1031.32H1031.22H1031.12H1031.03H1030.93H1030.84H1030.75H1030.66H1030.57H1030.49H1030.4H1030.32H1030.24H1030.16H1030.08H1030H1029.93H1029.86H1029.78H1029.71H1029.65H1029.58H1029.51H1029.45H1029.39H1029.33H1029.27H1029.21H1029.16H1029.1H1029.05H1029H1028.95H1028.91H1028.86H1028.82H1028.78H1028.74H1028.7H1028.66H1028.63H1028.6H1028.57H1028.54H1028.51H1028.48H1028.46H1028.44H1028.42H1028.4H1028.38H1028.37H1028.36H1028.35H1028.34H1028.33H1028.33H1028.32C1028.32 154.493 1028.32 154.493 1028.32 155.592V154.493H1027.22L1027.23 155.592C1027.23 156.8 1027.35 157.51 1027.64 158.472C1027.93 159.43 1028.41 160.458 1029.03 161.227C1029.6 161.925 1030.29 162.587 1031.19 162.965Z" fill="#ECEFF2" stroke="#173D5A" stroke-width="2.19718" stroke-miterlimit="10"/>
<circle cx="1078.86" cy="139.479" r="4.76056" fill="#9DC0AE" stroke="#173D5A" stroke-width="2.19718"/>
<path d="M1049.56 130.69H1043.7V135.085H1049.56V130.69Z" fill="#173D5A"/>
<path d="M1064.94 130.69H1056.89V135.085H1064.94V130.69Z" fill="#173D5A"/>
<path d="M1068.61 130.69H1065.68V135.085H1068.61V130.69Z" fill="#173D5A"/>
<path d="M1027.23 148.999V150.098H1028.32H1116.61C1116.88 150.098 1117.09 150.001 1117.2 149.945C1117.31 149.882 1117.41 149.81 1117.47 149.755C1117.6 149.643 1117.72 149.51 1117.82 149.39C1118.03 149.142 1118.26 148.816 1118.5 148.459C1118.97 147.739 1119.53 146.794 1120.03 145.86C1120.54 144.929 1121.01 143.976 1121.32 143.239C1121.46 142.884 1121.6 142.518 1121.66 142.211C1121.69 142.082 1121.73 141.823 1121.68 141.545C1121.65 141.394 1121.57 141.142 1121.35 140.92C1121.1 140.671 1120.79 140.576 1120.52 140.577C1119.82 140.578 1092.34 140.577 1089.52 140.577C1089.08 140.577 1088.71 140.733 1088.41 140.965L1085.23 143.455H1028.32H1027.23V144.553V148.999Z" fill="#ECEFF2" stroke="#173D5A" stroke-width="2.19718" stroke-miterlimit="10"/>
<path d="M1055.42 131.422H1051.03V139.479H1055.42V131.422Z" fill="#173D5A"/>
<path d="M1095.7 112.014C1095.7 112.667 1095.9 113.305 1096.26 113.848C1096.62 114.39 1097.14 114.813 1097.74 115.061C1098.35 115.31 1099.01 115.374 1099.65 115.245C1100.29 115.115 1100.88 114.799 1101.34 114.336C1101.8 113.872 1102.11 113.283 1102.24 112.642C1102.36 112.001 1102.29 111.337 1102.04 110.736C1101.78 110.134 1101.36 109.621 1100.81 109.262C1100.27 108.902 1099.63 108.713 1098.98 108.718C1098.54 108.718 1098.12 108.804 1097.72 108.97C1097.32 109.136 1096.96 109.379 1096.65 109.685C1096.35 109.992 1096.11 110.355 1095.95 110.755C1095.78 111.155 1095.7 111.582 1095.7 112.014V112.014Z" fill="#479D80"/>
<path d="M1034.18 101.739C1034.18 102.102 1034.28 102.458 1034.48 102.762C1034.68 103.066 1034.96 103.304 1035.3 103.446C1035.63 103.588 1036 103.627 1036.36 103.559C1036.71 103.491 1037.04 103.318 1037.3 103.063C1037.56 102.808 1037.74 102.481 1037.81 102.126C1037.88 101.77 1037.85 101.401 1037.71 101.065C1037.57 100.729 1037.34 100.442 1037.03 100.24C1036.73 100.038 1036.38 99.9297 1036.01 99.9297C1035.77 99.9269 1035.54 99.9716 1035.32 100.061C1035.09 100.151 1034.89 100.284 1034.72 100.452C1034.55 100.62 1034.42 100.821 1034.32 101.042C1034.23 101.263 1034.18 101.5 1034.18 101.739V101.739Z" fill="#479D80"/>
<path d="M1097.17 98.8521C1097.17 99.3321 1097.36 99.7924 1097.7 100.132C1098.04 100.471 1098.5 100.662 1098.98 100.662C1099.34 100.666 1099.7 100.562 1100 100.362C1100.31 100.163 1100.55 99.8769 1100.69 99.5414C1100.83 99.206 1100.87 98.8361 1100.8 98.479C1100.73 98.1218 1100.55 97.7936 1100.29 97.5363C1100.04 97.2789 1099.71 97.1041 1099.35 97.0342C1098.99 96.9642 1098.62 97.0022 1098.29 97.1434C1097.95 97.2847 1097.67 97.5226 1097.47 97.827C1097.27 98.1313 1097.16 98.4882 1097.17 98.8521Z" fill="#479D80"/>
<path d="M1121.34 112.014C1121.34 112.376 1121.45 112.73 1121.65 113.031C1121.85 113.332 1122.13 113.567 1122.47 113.706C1122.8 113.844 1123.17 113.881 1123.53 113.81C1123.88 113.739 1124.21 113.565 1124.46 113.309C1124.72 113.053 1124.89 112.727 1124.96 112.371C1125.04 112.016 1125 111.648 1124.86 111.313C1124.72 110.979 1124.49 110.693 1124.19 110.492C1123.89 110.291 1123.53 110.183 1123.17 110.183C1122.93 110.18 1122.69 110.226 1122.47 110.317C1122.24 110.408 1122.04 110.543 1121.87 110.713C1121.7 110.884 1121.56 111.087 1121.47 111.31C1121.38 111.534 1121.34 111.773 1121.34 112.014V112.014Z" fill="#479D80"/>
<path d="M1119.51 141.676C1119.51 143.507 1116.44 148.268 1115.71 148.268H1029.06L1029.06 144.606" stroke="#9DC0AE" stroke-width="2.19718" stroke-miterlimit="10"/>
<path fill-rule="evenodd" clip-rule="evenodd" d="M1028.3 155.592C1028.3 155.606 1028.3 155.621 1028.29 155.636C1028.27 155.923 1028.25 156.301 1028.28 156.755C1028.35 157.67 1028.6 158.868 1029.29 160.236C1029.9 161.461 1031.01 161.9 1031.72 162.058C1032.33 162.193 1032.95 162.186 1033.2 162.184C1033.22 162.184 1033.24 162.183 1033.26 162.183H1033.26H1100.73C1102.35 162.183 1103.5 162.104 1104.44 161.947C1105.39 161.788 1106.08 161.56 1106.71 161.348L1106.74 161.338C1107.61 161.048 1108.48 160.503 1109.21 159.98C1109.96 159.432 1110.71 158.796 1111.34 158.195C1111.97 157.604 1112.54 156.992 1112.94 156.482C1113.09 156.287 1113.33 155.965 1113.5 155.592H1110.82C1110.63 155.799 1110.42 156.025 1110.18 156.26C1110.05 156.394 1109.9 156.531 1109.76 156.669C1108.6 157.748 1107.12 158.895 1106.05 159.254L1106.05 159.254C1104.77 159.679 1103.85 159.986 1100.73 159.986H1033.26L1033.17 159.987C1032.6 159.989 1031.62 159.993 1031.25 159.254C1030.19 157.122 1030.5 155.68 1030.52 155.596L1030.52 155.592H1028.3Z" fill="#9DC0AE"/>
<rect x="1028.32" y="143.873" width="2.19718" height="5.12676" fill="#9DC0AE"/>
<rect x="1042.97" y="140.211" width="26.3662" height="2.19718" fill="#9DC0AE"/>
<path d="M1050.3 130.69V143.873H1056.16V130.69H1050.3ZM1051.21 131.815H1055.2V138.969H1053.21H1051.21V131.815Z" fill="#479D80"/>
<path d="M1027.23 149V150.099H1028.32H1116.61C1116.88 150.099 1117.09 150.002 1117.2 149.946C1117.31 149.883 1117.41 149.811 1117.47 149.755C1117.6 149.644 1117.72 149.511 1117.82 149.39C1118.03 149.143 1118.26 148.817 1118.5 148.46C1118.97 147.739 1119.53 146.795 1120.03 145.861C1120.54 144.93 1121.01 143.977 1121.32 143.24C1121.46 142.885 1121.6 142.519 1121.66 142.212C1121.69 142.082 1121.73 141.824 1121.68 141.546C1121.65 141.395 1121.57 141.142 1121.35 140.92C1121.1 140.672 1120.79 140.577 1120.52 140.577C1119.82 140.578 1092.34 140.578 1089.52 140.577C1089.08 140.577 1088.71 140.734 1088.41 140.966L1085.23 143.456H1028.32H1027.23V144.554V149Z" stroke="#173D5A" stroke-width="2.19718" stroke-miterlimit="10"/>
</g>
<circle cx="789" cy="273" r="20" fill="#ECEFF2"/>
<circle cx="88" cy="269" r="20" fill="#ECEFF2"/>
<circle cx="1004" cy="109" r="12" fill="#ECEFF2"/>
<circle cx="676" cy="355" r="12" fill="#ECEFF2"/>
<circle cx="307" cy="105" r="12" fill="#ECEFF2"/>
<path d="M222.5 344.195C225.492 344.195 228.412 345.041 230.891 346.618C233.37 348.196 235.293 350.432 236.425 353.036C237.558 355.64 237.853 358.502 237.277 361.263C236.7 364.023 235.275 366.568 233.173 368.57C231.069 370.574 228.383 371.944 225.45 372.5C222.516 373.055 219.476 372.77 216.716 371.681C213.957 370.592 211.608 368.752 209.959 366.403C208.312 364.054 207.436 361.299 207.436 358.486C207.436 354.715 209.008 351.086 211.827 348.401C214.648 345.714 218.486 344.195 222.5 344.195ZM222.5 377.077C235.481 377.077 246.38 389.614 246.793 405.555H198.207C198.618 389.429 209.589 377.077 222.5 377.077Z" fill="#ECEFF2" stroke="#ECEFF2" stroke-width="2.39062" stroke-miterlimit="10"/>
<g opacity="0.24">
<path d="M244.414 404.359C244.414 390.779 234.39 379.258 222.5 379.258C210.679 379.258 200.586 390.612 200.586 404.359" stroke="#9DC0AE" stroke-width="2.39062" stroke-miterlimit="10"/>
</g>
</g>
<defs>
<clipPath id="clip0">
<rect width="1440" height="400" fill="white"/>
</clipPath>
</defs>
</svg>
