<svg width="376" height="97" viewBox="0 0 376 97" fill="none" xmlns="http://www.w3.org/2000/svg">
<path d="M289.778 92.8633V79.6133H291.008V84.9433C291.475 84.3509 292.065 83.8665 292.738 83.5233C293.393 83.2084 294.111 83.0476 294.838 83.0533C295.486 83.0446 296.129 83.1719 296.724 83.4268C297.32 83.6817 297.856 84.0586 298.298 84.5333C299.223 85.4853 299.741 86.7606 299.741 88.0883C299.741 89.416 299.223 90.6913 298.298 91.6433C297.849 92.1155 297.307 92.4898 296.706 92.7428C296.106 92.9958 295.459 93.1219 294.808 93.1133C294.074 93.1223 293.349 92.9506 292.698 92.6133C292.03 92.2447 291.455 91.7282 291.018 91.1033V92.8633H289.778ZM294.698 91.9233C295.364 91.9275 296.02 91.755 296.598 91.4233C297.174 91.0787 297.65 90.5891 297.978 90.0033C298.313 89.4116 298.488 88.7432 298.488 88.0633C298.49 87.3819 298.31 86.7124 297.968 86.1233C297.643 85.5268 297.162 85.0293 296.578 84.6833C296.015 84.3482 295.372 84.172 294.718 84.1733C294.044 84.1742 293.383 84.35 292.798 84.6833C292.216 85.0104 291.735 85.4912 291.408 86.0733C291.067 86.6836 290.898 87.3746 290.918 88.0733C290.905 88.5844 290.995 89.0928 291.183 89.5685C291.37 90.0442 291.65 90.4777 292.008 90.8433C292.357 91.1994 292.777 91.4793 293.24 91.6651C293.703 91.851 294.199 91.9389 294.698 91.9233Z" fill="#122945"/>
<path d="M300.948 83.3032H302.278L305.568 90.6632L308.758 83.3032H310.068L304.358 96.3632H303.058L304.898 92.1432L300.948 83.3032Z" fill="#122945"/>
<path d="M326.018 93.2533C324.835 93.679 323.585 93.8857 322.328 93.8633C317.821 93.8633 315.568 91.6833 315.568 87.3233C315.568 83.1966 317.821 81.13 322.328 81.1233C323.585 81.1039 324.836 81.314 326.018 81.7433V83.8533C324.909 83.3792 323.714 83.1409 322.508 83.1533C319.488 83.1533 317.978 84.5433 317.978 87.3233C317.978 90.3366 319.488 91.8433 322.508 91.8433C323.714 91.8558 324.909 91.6174 326.018 91.1433V93.2533V93.2533Z" fill="#122945"/>
<path d="M336.098 93.7834H333.768V91.0534H327.428V89.3034L332.568 81.2134H335.058L330.088 89.2134H333.768V85.0134H336.098V89.2134L337.398 90.4034V91.0534H336.098V93.7834Z" fill="#122945"/>
<path d="M340.228 93.7834H337.838L343.168 81.2134H345.678L351.118 93.7834H348.618L347.188 90.3534H343.008L343.808 88.3334H346.338L344.368 83.6134L340.228 93.7834Z" fill="#122945"/>
<path d="M357.578 91.7534C360.178 91.7534 361.488 90.2234 361.488 87.1534C361.488 84.5434 360.178 83.2334 357.578 83.2334H354.988V91.7534H357.578ZM352.658 93.7534V81.2134H357.578C361.738 81.2134 363.814 83.1934 363.808 87.1534C363.808 91.5734 361.731 93.7834 357.578 93.7834L352.658 93.7534Z" fill="#122945"/>
<path d="M365.568 93.2537V91.1236C366.938 91.6108 368.384 91.8479 369.838 91.8236C371.768 91.8236 372.728 91.1837 372.728 89.8937C372.728 88.9537 372.138 88.4837 370.958 88.4837H368.958C366.391 88.4837 365.104 87.3136 365.098 84.9736C365.098 82.3936 366.928 81.1037 370.588 81.1037C371.945 81.0974 373.296 81.3066 374.588 81.7236V83.8336C373.307 83.3613 371.952 83.1242 370.588 83.1337C368.478 83.1337 367.428 83.7436 367.428 84.9736C367.428 85.9136 367.938 86.3836 368.958 86.3836H370.958C373.691 86.3836 375.058 87.5537 375.058 89.8937C375.058 92.5337 373.318 93.8937 369.838 93.8937C368.391 93.9161 366.95 93.7102 365.568 93.2837V93.2537Z" fill="#122945"/>
<path d="M129.908 23.8932V18.7632H158.618V23.8932H146.938V71.1232H141.588V23.8932H129.908Z" fill="#122945"/>
<path d="M170.828 18.7632H181.278C187.098 18.7632 191.041 18.9998 193.108 19.4732C196.082 20.1061 198.756 21.7232 200.698 24.0632C202.677 26.5031 203.713 29.573 203.618 32.7132C203.681 35.3591 202.987 37.968 201.618 40.2332C200.242 42.4211 198.223 44.1293 195.838 45.1232C193.344 46.2232 189.901 46.7865 185.508 46.8132L204.358 71.1232H197.878L179.028 46.8332H176.028V71.1232H170.788L170.828 18.7632ZM176.068 23.8932V41.7032L185.068 41.7732C187.693 41.8989 190.32 41.5604 192.828 40.7732C194.441 40.1602 195.815 39.0456 196.748 37.5932C197.687 36.1328 198.177 34.4292 198.158 32.6932C198.177 30.9901 197.682 29.3208 196.738 27.9032C195.841 26.5094 194.529 25.4322 192.988 24.8232C191.434 24.2032 188.864 23.8932 185.278 23.8932H176.068Z" fill="#122945"/>
<path d="M216.998 18.7632H222.278V71.1232H217.038L216.998 18.7632Z" fill="#122945"/>
<path d="M234.878 23.8932V18.7632H263.588V23.8932H251.898V71.1232H246.558V23.8932H234.878Z" fill="#122945"/>
<path d="M295.548 17.4433C299.235 17.3472 302.904 18.0025 306.33 19.3692C309.756 20.7359 312.869 22.7855 315.478 25.3933C318.084 27.9264 320.14 30.9701 321.517 34.334C322.893 37.6979 323.561 41.3096 323.478 44.9433C323.441 50.3955 321.799 55.7159 318.755 60.2395C315.711 64.763 311.401 68.2889 306.364 70.3762C301.327 72.4635 295.787 73.0196 290.436 71.9751C285.084 70.9305 280.16 68.3316 276.278 64.5033C273.694 62.0034 271.651 58.9997 270.275 55.6782C268.898 52.3567 268.219 48.7881 268.278 45.1933C268.245 40.286 269.508 35.4569 271.938 31.1933C274.291 26.9804 277.748 23.4886 281.938 21.0933C286.069 18.6867 290.767 17.4266 295.548 17.4433V17.4433ZM295.788 22.5433C291.918 22.5396 288.119 23.5757 284.788 25.5433C281.392 27.485 278.581 30.3032 276.648 33.7033C274.682 37.1923 273.675 41.1392 273.728 45.1433C273.699 48.0584 274.249 50.9503 275.347 53.6508C276.445 56.3514 278.069 58.8067 280.125 60.8741C282.18 62.9416 284.626 64.5799 287.32 65.6939C290.014 66.8079 292.902 67.3754 295.818 67.3633C299.78 67.3771 303.675 66.3421 307.108 64.3633C310.499 62.4569 313.301 59.6548 315.208 56.2633C317.164 52.782 318.168 48.8463 318.118 44.8533C318.171 40.9011 317.166 37.0067 315.208 33.5733C313.251 30.197 310.422 27.4096 307.018 25.5033C303.604 23.5363 299.728 22.5146 295.788 22.5433V22.5433Z" fill="#122945"/>
<path d="M334.038 71.1232V18.7632H335.178L370.058 58.9332V18.7632H375.278V71.1232H374.098L339.458 31.4832V71.1232H334.038Z" fill="#122945"/>
<path d="M105.788 73.0633L105.558 72.4033C97.3225 49.4942 96.8376 24.5148 104.178 1.30334C104.241 1.10366 104.24 0.889062 104.175 0.689847C104.11 0.490631 103.985 0.316865 103.815 0.193089C103.646 0.0693133 103.443 0.00178503 103.233 3.48964e-05C103.024 -0.00171523 102.819 0.0624045 102.648 0.183339L0.427682 72.5833C0.25264 72.7055 0.121281 72.8805 0.0528228 73.0827C-0.015635 73.2848 -0.017602 73.5036 0.0472114 73.707C0.112025 73.9104 0.240219 74.0877 0.413037 74.213C0.585855 74.3383 0.794228 74.405 1.00768 74.4033H104.848C105.008 74.4033 105.166 74.3646 105.309 74.2905C105.451 74.2164 105.574 74.109 105.666 73.9776C105.758 73.8462 105.817 73.6945 105.839 73.5354C105.86 73.3762 105.842 73.2143 105.788 73.0633V73.0633ZM102.788 70.5533L95.7877 62.7333C95.9429 62.5059 96.0297 62.2386 96.0377 61.9633C96.0471 61.7699 96.0179 61.5766 95.9519 61.3946C95.8858 61.2126 95.7842 61.0455 95.653 60.9031C95.5218 60.7607 95.3636 60.6459 95.1875 60.5652C95.0115 60.4846 94.8212 60.4397 94.6277 60.4333C94.5547 60.4231 94.4807 60.4231 94.4077 60.4333L88.8277 47.5433C89.0523 47.3824 89.2259 47.1602 89.3277 46.9033L97.4977 45.9033C98.3458 54.2928 100.13 62.5609 102.818 70.5533H102.788ZM69.7377 44.1233C69.7517 43.8394 69.6825 43.5576 69.5386 43.3125C69.3947 43.0673 69.1824 42.8695 68.9277 42.7433L71.9277 25.3633C72.0677 25.369 72.2074 25.3451 72.3377 25.2933L86.8177 45.5233C86.696 45.7067 86.6174 45.9153 86.5877 46.1333L69.7377 44.1233ZM87.3877 45.0033L72.9777 24.8233L82.9777 29.4133C82.9811 29.9662 83.1861 30.4989 83.5544 30.9113C83.9226 31.3237 84.4287 31.5876 84.9777 31.6533L87.4577 45.0133L87.3877 45.0033ZM85.6977 31.6233C86.1474 31.5276 86.5574 31.2975 86.8735 30.9636C87.1895 30.6296 87.3967 30.2076 87.4677 29.7533L97.2577 27.4533C97.2577 27.6733 97.2577 27.8933 97.2577 28.1133L88.6077 44.9733C88.4765 44.9223 88.3382 44.8919 88.1977 44.8833L85.6977 31.6233ZM89.5077 46.1233C89.4683 45.8557 89.3578 45.6036 89.1877 45.3933L97.1877 29.8733C96.9766 34.1049 97.0067 38.3451 97.2777 42.5733C97.3377 43.4433 97.4177 44.3033 97.4977 45.1733L89.5077 46.1233ZM97.3277 26.6433L87.4577 28.9533C87.3696 28.4858 87.1349 28.0585 86.7877 27.7333L101.278 4.24334C99.2122 11.5686 97.8888 19.0831 97.3277 26.6733V26.6433ZM100.328 4.24334L86.1677 27.3333C85.9297 27.2314 85.6761 27.1705 85.4177 27.1533L85.5877 14.7133L100.328 4.24334ZM84.6677 27.2133C84.3081 27.3066 83.977 27.4867 83.7033 27.7377C83.4295 27.9888 83.2216 28.3032 83.0977 28.6533L73.0977 24.0333C73.0702 23.9099 73.023 23.7917 72.9577 23.6833L84.8577 15.2533L84.6677 27.2133ZM71.1377 24.9533C71.1756 25.0167 71.2228 25.074 71.2777 25.1233L68.2077 42.6333C67.9558 42.6431 67.7108 42.7183 67.4969 42.8515C67.2829 42.9848 67.1074 43.1715 66.9877 43.3933L53.8277 37.2133L71.1377 24.9533ZM66.7977 44.1233C66.7983 44.4215 66.8928 44.7119 67.0677 44.9533L57.0677 53.7733C56.8734 53.4802 56.6128 53.2369 56.3071 53.0632C56.0013 52.8895 55.6589 52.7902 55.3077 52.7733H55.2777L53.3877 37.8333L66.7977 44.1233ZM52.6577 38.1233L54.4877 52.9733C54.104 53.1086 53.7635 53.3441 53.5015 53.6553C53.2395 53.9665 53.0655 54.3422 52.9977 54.7433L37.2177 48.9833L52.6577 38.1233ZM36.4677 49.5133L53.0077 55.5133C53.0667 55.729 53.1577 55.9346 53.2777 56.1233L41.1777 60.1233C41.0123 59.8471 40.7579 59.6353 40.4563 59.5226C40.1546 59.41 39.8237 59.4032 39.5177 59.5033L34.0777 51.2033L36.4677 49.5133ZM33.4677 51.6333L38.8377 59.8733C38.5795 60.1437 38.4299 60.4997 38.4177 60.8733C38.4177 60.8733 38.4177 60.9533 38.4177 60.9933L20.7877 66.1233C20.724 66.0286 20.6538 65.9384 20.5777 65.8533L25.8477 57.0033L33.4677 51.6333ZM24.3377 58.1233L19.9277 65.5233C19.8165 65.4928 19.7026 65.4727 19.5877 65.4633C19.2977 65.4506 19.0103 65.5235 18.7614 65.6728C18.5124 65.8222 18.3129 66.0415 18.1877 66.3033L13.9177 65.5033L24.3377 58.1233ZM4.14768 72.4233L13.0677 66.1233L18.0677 67.0533C18.0814 67.2669 18.1412 67.4749 18.2431 67.6631C18.3449 67.8512 18.4864 68.0151 18.6577 68.1433L16.9377 72.4333L4.14768 72.4233ZM17.7377 72.4233L19.3477 68.4233H19.4577C19.7416 68.4373 20.0234 68.3681 20.2685 68.2242C20.5137 68.0803 20.7115 67.868 20.8377 67.6133L43.6877 72.4333L17.7377 72.4233ZM21.0577 66.8833L38.6377 61.7033C38.7663 61.9074 38.9429 62.077 39.152 62.1973C39.3612 62.3175 39.5966 62.3848 39.8377 62.3933C40.0352 62.4044 40.2328 62.3737 40.4177 62.3033L46.9677 72.3033L21.0577 66.8833ZM41.0577 61.8833C41.2673 61.6369 41.3872 61.3267 41.3977 61.0033C41.4026 60.9601 41.4026 60.9165 41.3977 60.8733L53.7877 56.7933C53.9348 56.9257 54.0997 57.0367 54.2777 57.1233L47.7077 72.1233L41.0577 61.8833ZM48.4277 72.4433L55.0477 57.3333H55.1677C55.464 57.3439 55.7596 57.2964 56.0377 57.1933L71.2277 72.4233L48.4277 72.4433ZM56.6777 56.7833C57.0206 56.5118 57.2744 56.1438 57.4063 55.7267C57.5381 55.3097 57.5421 54.8627 57.4177 54.4433L67.6577 45.4433C67.7761 45.495 67.9003 45.5319 68.0277 45.5533L71.3377 71.5533L56.6777 56.7833ZM68.7777 45.4333C69.065 45.3265 69.3104 45.1302 69.4777 44.8733L86.6677 46.8733C86.7683 47.1225 86.9341 47.3401 87.1477 47.5033L72.0977 71.4233L68.7777 45.4333ZM87.8577 47.8133H87.9777C88.0473 47.8233 88.118 47.8233 88.1877 47.8133L93.7777 60.7133C93.5942 60.8411 93.4428 61.0096 93.3352 61.2057C93.2277 61.4017 93.1669 61.6199 93.1577 61.8433C93.1484 62.0269 93.1756 62.2104 93.2377 62.3833L72.8377 71.6733L87.8577 47.8133ZM73.0377 72.4033L93.6677 63.0133L87.2777 72.4033H73.0377ZM88.1877 72.4033L94.3777 63.4033H94.5677C94.8174 63.4125 95.0653 63.3574 95.2877 63.2433L103.418 72.3733L88.1877 72.4033Z" fill="#122945"/>
</svg>
